<?xml version="1.0" encoding="UTF-8"?> <svg xmlns="http://www.w3.org/2000/svg" width="100" height="100" viewBox="0 0 100 100" fill="none"> <path fill-rule="evenodd" clip-rule="evenodd" d="M30.9254 90.0378L7.1875 97.5921L0 99.8792L10.0973 70.0553C8.40281 66.9407 7.06062 63.6411 6.10436 60.2241C4.94432 56.0781 4.359 51.7932 4.359 47.4881C4.359 34.8197 9.3993 22.8097 18.3846 13.8967C27.3991 4.95475 39.499 0 52.1936 0C64.8844 0 76.9777 4.96071 85.9846 13.904C94.9661 22.8223 100 34.8352 100 47.5033C100 60.1693 94.9606 72.178 85.978 81.0904C76.9669 90.031 64.8709 94.9873 52.1794 94.9873C48.1529 94.9873 44.1414 94.4903 40.24 93.4922C37.0225 92.6691 33.8999 91.5094 30.9253 90.0377L30.9254 90.0378Z" fill="white"></path> <path fill-rule="evenodd" clip-rule="evenodd" d="M96.1861 47.5031C96.1861 35.4398 91.2606 24.5174 83.2972 16.61C75.3348 8.70377 64.3376 3.8136 52.1934 3.8136C40.0387 3.8136 29.0363 8.70211 21.0701 16.6041C13.1004 24.5096 8.17239 35.43 8.17239 47.4879C8.17239 51.5355 8.73218 55.4633 9.77672 59.1962C10.8146 62.9052 12.333 66.4169 14.2577 69.6582L6.63346 92.1775L6.03076 93.9578L7.82156 93.3879L31.2716 85.9252C34.3762 87.5961 37.6979 88.9052 41.185 89.7974C44.6984 90.6962 48.3807 91.1735 52.1792 91.1735C64.3285 91.1735 75.3276 86.2847 83.2916 78.3831C91.259 70.478 96.1861 59.5588 96.1861 47.5032L96.1861 47.5031Z" fill="white"></path> <path fill-rule="evenodd" clip-rule="evenodd" d="M45.0372 35.5771C44.8441 35.188 43.7289 32.4948 42.7012 30.0124C42.0442 28.4255 41.4176 26.9121 41.2947 26.6194C40.1372 23.8596 38.8579 23.9428 37.8766 24.0065C37.8122 24.0107 37.7502 24.0148 37.6672 24.0148C37.3248 24.0148 36.9883 23.9935 36.6396 23.9714C36.2036 23.9437 35.751 23.915 35.3234 23.915C34.7548 23.915 33.9803 24.033 33.1648 24.4147C32.5601 24.6978 31.9362 25.124 31.3651 25.7514C31.2819 25.8413 31.2191 25.9073 31.151 25.9789C29.7923 27.4071 26.8306 30.5202 26.8306 36.4991C26.8306 42.7709 31.3533 48.7353 32.0179 49.6112L32.0155 49.6129L32.0217 49.621L32.0291 49.6285C32.0552 49.6621 32.1511 49.8025 32.293 50.01C33.9633 52.4529 41.642 63.6832 53.315 68.2424C63.9047 72.3746 65.8209 71.9108 67.5325 71.4967C67.8239 71.4262 68.1083 71.3573 68.4161 71.3289C69.8022 71.1986 72.0696 70.2497 73.9778 68.9173C75.5606 67.8119 76.9424 66.4151 77.4713 64.9442C77.9433 63.6291 78.2102 62.4074 78.3339 61.4018C78.5137 59.941 78.3714 58.7916 78.1056 58.3477L78.1019 58.3439C77.6978 57.6781 76.9987 57.3481 75.9502 56.853C75.7653 56.7657 75.5676 56.6724 75.3776 56.5805L75.3783 56.5792C74.6552 56.2115 72.1537 54.9884 70.0154 53.9776C68.6337 53.3244 67.4059 52.7632 66.9197 52.5888C66.2358 52.3432 65.6399 52.1575 65.0011 52.2294C64.2768 52.3112 63.645 52.6842 63.0593 53.5713L63.0575 53.5702C62.7633 54.012 62.2452 54.6745 61.6788 55.3683C60.7819 56.4671 59.7117 57.701 59.2557 58.219V58.2228C59.061 58.4445 58.893 58.5653 58.7284 58.5851C58.4999 58.6127 58.1858 58.519 57.7508 58.3054C57.4728 58.1663 57.2018 58.0493 56.8675 57.905C55.1765 57.1755 51.8829 55.7544 48.1292 52.4309C46.7865 51.2425 45.6048 49.9433 44.6179 48.7243C43.0206 46.7513 41.9412 44.9936 41.5123 44.2532C41.1737 43.6725 41.5499 43.2961 41.8972 42.9488L41.8954 42.9468C42.2795 42.5632 42.7141 42.0407 43.1503 41.5165C43.349 41.2778 43.5477 41.0389 43.7893 40.7605L43.793 40.7568C44.3813 40.0728 44.6251 39.5746 44.9543 38.9023C45.0116 38.7852 45.0716 38.6626 45.1321 38.5421L45.1358 38.5384C45.4252 37.9552 45.4992 37.4002 45.4453 36.8804C45.3953 36.3965 45.2333 35.9647 45.0357 35.5778L45.0372 35.5771Z" fill="#EF8041"></path> </svg> 