<?xml version="1.0" encoding="UTF-8"?> <svg xmlns="http://www.w3.org/2000/svg" width="286" height="71" viewBox="0 0 286 71" fill="none"> <path d="M78.4252 61.3686H59.7895V13.9725L78.4252 29.9785V61.3686ZM2.15282 61.3686H20.7882V13.9725L2.15282 29.9785V61.3686ZM22.941 61.3686H33.0799V3.41556L22.941 12.124V61.3686ZM34.1563 63.5214H1.07641C0.482268 63.5214 0 63.0391 0 62.445V29.4879C0.00340157 29.1851 0.130772 28.8843 0.378331 28.6723L33.3993 0.311811C33.594 0.119433 33.8612 0 34.1563 0C34.7505 0 35.2328 0.482268 35.2328 1.07641V62.445C35.2328 63.0391 34.7505 63.5214 34.1563 63.5214ZM57.637 61.3686H47.4977V3.41556L57.637 12.124V61.3686ZM46.4213 63.5214H79.5012C80.0957 63.5214 80.5776 63.0391 80.5776 62.445V29.4879C80.5746 29.1851 80.4473 28.8843 80.1993 28.6723L47.1783 0.311811C46.9841 0.119433 46.7168 0 46.4213 0C45.8271 0 45.3449 0.482268 45.3449 1.07641V62.445C45.3449 63.0391 45.8271 63.5214 46.4213 63.5214Z" fill="#008649"></path> <path d="M283.243 59.9705L284.104 60.7037C283.764 61.1928 283.323 61.6546 282.781 62.0908C282.239 62.5258 281.5 62.7443 280.566 62.7443C279.97 62.7443 279.407 62.6271 278.876 62.3931C278.344 62.1596 277.914 61.7718 277.584 61.2294C277.255 60.6878 277.09 59.9705 277.09 59.0781V49.0363L276.931 48.8768H274.222V47.7607C275.496 47.6753 276.512 47.097 277.266 46.0236C278.02 44.9502 278.44 43.2982 278.525 41.0664H279.641V47.7607H283.785V48.8768H279.8L279.641 49.0363V59.2694C279.641 59.9705 279.789 60.4864 280.087 60.8148C280.385 61.1444 280.767 61.3099 281.235 61.3099C281.66 61.3099 282.026 61.1875 282.335 60.9429C282.643 60.6984 282.945 60.3745 283.243 59.9705ZM282.77 27.798L282.929 27.9575H285.321V29.0732C284.767 29.0732 284.22 29.0785 283.679 29.0891C283.136 29.0997 282.589 29.1159 282.037 29.1367C281.484 29.1582 280.931 29.1904 280.378 29.2323L280.219 29.0732V26.3629C279.815 27.1079 279.183 27.798 278.323 28.4356C277.462 29.0732 276.404 29.3918 275.151 29.3918C273.875 29.3918 272.743 29.0785 271.756 28.4515C270.767 27.8248 269.991 26.9431 269.428 25.8058C268.865 24.6689 268.584 23.3351 268.584 21.8048C268.584 20.2748 268.865 18.9301 269.428 17.7724C269.991 16.614 270.767 15.7107 271.756 15.0625C272.743 14.4143 273.875 14.09 275.151 14.09C276.489 14.09 277.568 14.3875 278.387 14.9827C279.205 15.578 279.815 16.2897 280.219 17.1189V7.42029L280.06 7.2608H277.669V6.14546C278.222 6.14546 278.774 6.14017 279.327 6.12921C279.879 6.11938 280.427 6.10313 280.968 6.08196C281.51 6.06042 282.058 6.02829 282.611 5.98596L282.77 6.14546V27.798ZM110.445 7.71396C112.081 7.71396 113.564 7.95358 114.892 8.43169C116.221 8.9098 117.358 9.59466 118.304 10.4874C119.249 11.3801 119.982 12.4641 120.503 13.7393C121.024 15.0149 121.284 16.4598 121.284 18.0752C121.284 19.6474 121.013 21.1029 120.472 22.4424C119.93 23.7807 119.169 24.9448 118.192 25.9332C117.214 26.9215 116.067 27.6914 114.749 28.2447C113.431 28.7973 111.996 29.0732 110.445 29.0732H100.562V27.9575H103.113L103.272 27.798V11.2338H106.141V27.798L106.301 27.9575H110.445C112.018 27.9575 113.389 27.5644 114.558 26.7775C115.726 25.9914 116.635 24.8813 117.283 23.4462C117.931 22.0119 118.256 20.3278 118.256 18.3938C118.256 16.5448 117.915 14.8977 117.235 13.4524C116.555 12.0067 115.583 10.8759 114.318 10.0576C113.054 9.23938 111.551 8.83006 109.808 8.83006C106.726 8.83006 103.644 8.83006 100.562 8.83006V7.71396H110.445ZM128.192 17.9157C128.809 16.8317 129.568 15.9174 130.472 15.1736C131.375 14.4302 132.348 14.0685 133.389 14.09C133.92 14.09 134.35 14.186 134.68 14.3773C135.009 14.5681 135.248 14.818 135.397 15.126C135.546 15.434 135.621 15.7795 135.621 16.162C135.621 16.7149 135.44 17.1719 135.078 17.5332C134.717 17.8941 134.26 18.0752 133.707 18.0752C133.155 18.0752 132.698 17.8941 132.337 17.5332C131.976 17.1719 131.795 16.7149 131.795 16.162C131.795 15.9711 131.859 15.716 131.986 15.3974C132.114 15.0784 132.252 14.8448 132.4 14.6955L132.369 15.5244C131.965 15.6525 131.55 15.8645 131.125 16.162C130.7 16.4598 130.249 16.9167 129.77 17.5332C129.292 18.1492 128.766 19.0204 128.192 20.1467V27.798L128.352 27.9575H132.018V29.0732H123.092V27.9575H125.483L125.642 27.798V15.6839L125.483 15.5244H123.092V14.4086C123.644 14.4086 124.181 14.4033 124.702 14.3928C125.222 14.3822 125.743 14.3667 126.264 14.3451C126.785 14.3236 127.321 14.2915 127.874 14.2495L128.033 14.4086V17.9157H128.192ZM143.925 28.117C145.051 28.117 146.003 27.8615 146.778 27.3513C147.553 26.8418 148.228 26.2786 148.802 25.6618L149.663 26.395C149.217 26.9261 148.712 27.4212 148.149 27.8777C147.585 28.3343 146.927 28.7013 146.173 28.9772C145.418 29.2539 144.509 29.3918 143.447 29.3918C142.15 29.3918 140.944 29.0838 139.828 28.467C138.713 27.8509 137.815 26.9691 137.135 25.8213C136.454 24.6735 136.114 23.3136 136.114 21.7413C136.114 20.1683 136.454 18.8084 137.135 17.6605C137.815 16.5127 138.713 15.6309 139.828 15.0149C140.944 14.3981 142.15 14.09 143.447 14.09C144.764 14.09 145.896 14.3451 146.842 14.8554C147.788 15.3649 148.52 16.1412 149.041 17.1824C149.562 18.2237 149.822 19.5307 149.822 21.1029H138.665V19.9876H146.762C146.677 18.4573 146.374 17.2781 145.853 16.4492C145.333 15.6204 144.477 15.2057 143.287 15.2057C142.246 15.2057 141.401 15.4824 140.752 16.0346C140.104 16.5872 139.631 17.3578 139.334 18.3462C139.037 19.3337 138.888 20.4657 138.888 21.7413C138.888 22.995 139.121 24.1005 139.59 25.0567C140.057 26.0129 140.673 26.762 141.438 27.304C142.204 27.8456 143.032 28.117 143.925 28.117ZM163.833 29.3918C163.111 29.3918 162.494 29.2323 161.985 28.9137C161.474 28.5951 161.145 28.117 160.996 27.4794C160.507 28.0319 159.881 28.4885 159.115 28.8502C158.351 29.2115 157.436 29.3918 156.374 29.3918C154.695 29.3918 153.398 28.9772 152.485 28.1491C151.571 27.3199 151.113 26.3315 151.113 25.1837C151.113 24.0154 151.571 23.0214 152.485 22.2032C153.398 21.3849 154.695 20.9759 156.374 20.9759C157.436 20.9759 158.351 21.1566 159.115 21.5176C159.881 21.8793 160.507 22.3358 160.996 22.8891V19.5095C160.996 18.2131 160.757 17.1987 160.279 16.4655C159.8 15.7319 158.956 15.3649 157.744 15.3649C157.086 15.3649 156.475 15.434 155.912 15.5727C155.349 15.7107 154.822 15.9605 154.333 16.3211C154.674 16.5127 154.912 16.7467 155.05 17.0229C155.188 17.2988 155.258 17.597 155.258 17.9157C155.258 18.3832 155.099 18.7653 154.779 19.0635C154.46 19.3606 154.089 19.5095 153.664 19.5095C153.218 19.5095 152.84 19.35 152.532 19.0314C152.224 18.7124 152.07 18.2766 152.07 17.724C152.07 17.1719 152.24 16.6722 152.58 16.2255C152.92 15.7795 153.377 15.3974 153.951 15.0784C154.525 14.7598 155.167 14.5152 155.88 14.3451C156.591 14.1751 157.308 14.09 158.031 14.09C159.051 14.09 159.976 14.2333 160.805 14.5205C161.634 14.8074 162.298 15.3067 162.798 16.0187C163.297 16.7304 163.546 17.735 163.546 19.0314V26.6188C163.546 26.9162 163.615 27.2133 163.754 27.5107C163.892 27.809 164.163 27.9575 164.567 27.9575C164.864 27.9575 165.13 27.8509 165.364 27.6389C165.597 27.4257 165.82 27.1819 166.033 26.9053L166.894 27.6389C166.638 27.9994 166.363 28.3131 166.065 28.5788C165.767 28.8445 165.438 29.0471 165.076 29.1847C164.715 29.3227 164.301 29.3918 163.833 29.3918ZM160.996 26.045V24.3235C160.316 23.6008 159.625 23.1012 158.924 22.8245C158.223 22.549 157.564 22.4103 156.948 22.4103C155.948 22.4103 155.152 22.6601 154.556 23.1594C153.962 23.659 153.664 24.3341 153.664 25.1837C153.664 26.0129 153.962 26.6827 154.556 27.1929C155.152 27.7024 155.948 27.9575 156.948 27.9575C157.564 27.9575 158.223 27.8195 158.924 27.5429C159.625 27.2662 160.316 26.7677 160.996 26.045ZM191.934 27.9575H194.326V29.0732H186.834V27.9575H189.065L189.225 27.798V18.8719C189.225 17.8306 189.044 17.0124 188.683 16.4171C188.322 15.8218 187.652 15.5244 186.674 15.5244C185.782 15.5244 184.98 15.8279 184.268 16.433C183.555 17.0384 182.764 18.0642 181.893 19.5095V27.798L182.052 27.9575H184.283V29.0732H176.951V27.9575H179.183L179.343 27.798V18.8719C179.343 17.8306 179.162 17.0124 178.8 16.4171C178.439 15.8218 177.77 15.5244 176.792 15.5244C175.899 15.5244 175.097 15.8279 174.385 16.433C173.674 17.0384 172.881 18.0642 172.01 19.5095V27.798L172.17 27.9575H174.401V29.0732H166.91V27.9575H169.3L169.46 27.798V15.6839L169.3 15.5244H166.91V14.4086C167.462 14.4086 167.998 14.4033 168.52 14.3928C169.04 14.3822 169.561 14.3667 170.082 14.3451C170.602 14.3236 171.139 14.2915 171.692 14.2495L171.851 14.4086V17.4376H172.01C172.626 16.4386 173.349 15.6309 174.178 15.0149C175.007 14.3981 176.113 14.09 177.493 14.09C178.938 14.09 179.996 14.4086 180.665 15.0462C181.335 15.6839 181.733 16.4912 181.861 17.4689C182.477 16.4061 183.211 15.578 184.061 14.9827C184.911 14.3875 186.016 14.09 187.376 14.09C188.481 14.09 189.352 14.2764 189.99 14.6479C190.627 15.0194 191.085 15.5191 191.36 16.1465C191.637 16.7731 191.775 17.4689 191.775 18.2343V27.798L191.934 27.9575ZM209.533 8.83006H206.983L206.823 8.98955V27.798L206.983 27.9575H209.533V29.0732H201.245V27.9575H203.795L203.954 27.798V8.98955L203.795 8.83006H201.245V7.71396H209.533V8.83006ZM214.217 17.5649C214.217 18.1387 214.434 18.5899 214.87 18.9203C215.306 19.2487 215.869 19.5254 216.56 19.7484C217.251 19.9721 217.983 20.2004 218.76 20.4343C219.535 20.6679 220.268 20.9597 220.959 21.3108C221.65 21.6616 222.213 22.1291 222.649 22.7138C223.085 23.2973 223.302 24.0684 223.302 25.0246C223.302 26.087 223.031 26.9431 222.489 27.5905C221.947 28.2387 221.288 28.7013 220.513 28.9772C219.737 29.2539 218.988 29.3918 218.265 29.3918C217.394 29.3918 216.613 29.2754 215.922 29.0407C215.231 28.8079 214.61 28.4991 214.058 28.117L213.579 29.0732H212.367C212.24 28.2447 212.086 27.4212 211.905 26.6021C211.724 25.7846 211.507 24.9607 211.252 24.1319L212.304 23.8132C212.878 25.0038 213.526 25.9226 214.248 26.5708C214.971 27.219 215.683 27.6646 216.385 27.9099C217.085 28.1536 217.692 28.2761 218.202 28.2761C218.945 28.2761 219.609 28.0694 220.194 27.6547C220.779 27.2401 221.07 26.6082 221.07 25.7578C221.07 25.0987 220.853 24.5831 220.417 24.2116C219.982 23.8401 219.418 23.5373 218.728 23.3026C218.036 23.069 217.304 22.8408 216.528 22.6178C215.752 22.394 215.019 22.1238 214.328 21.8048C213.638 21.4862 213.075 21.0447 212.638 20.4816C212.203 19.9184 211.985 19.1799 211.985 18.266C211.985 17.331 212.24 16.5558 212.75 15.939C213.261 15.3229 213.914 14.8599 214.711 14.5523C215.508 14.2442 216.352 14.09 217.245 14.09C217.925 14.09 218.552 14.1804 219.126 14.3606C219.7 14.5413 220.168 14.7805 220.529 15.0784L220.847 14.4086H222.059C222.165 15.1313 222.298 15.8539 222.457 16.5762C222.617 17.2988 222.803 18.0215 223.015 18.7449L221.963 19.0635C221.496 17.9157 220.885 16.9855 220.131 16.2738C219.376 15.5618 218.403 15.2057 217.213 15.2057C216.108 15.2057 215.332 15.4556 214.886 15.9548C214.44 16.4545 214.217 16.9908 214.217 17.5649ZM224.568 29.0732V27.9575H226.959L227.118 27.798V7.42029L226.959 7.2608H224.568V6.14546C225.121 6.14546 225.668 6.14017 226.21 6.12921C226.752 6.11938 227.299 6.10313 227.851 6.08196C228.404 6.06042 228.957 6.02829 229.509 5.98596L229.669 6.14546V27.798L229.828 27.9575H232.219V29.0732H224.568ZM246.229 29.3918C245.507 29.3918 244.891 29.2323 244.381 28.9137C243.871 28.5951 243.542 28.117 243.393 27.4794C242.904 28.0319 242.277 28.4885 241.512 28.8502C240.746 29.2115 239.832 29.3918 238.77 29.3918C237.091 29.3918 235.794 28.9772 234.881 28.1491C233.967 27.3199 233.51 26.3315 233.51 25.1837C233.51 24.0154 233.967 23.0214 234.881 22.2032C235.794 21.3849 237.091 20.9759 238.77 20.9759C239.832 20.9759 240.746 21.1566 241.512 21.5176C242.277 21.8793 242.904 22.3358 243.393 22.8891V19.5095C243.393 18.2131 243.153 17.1987 242.675 16.4655C242.197 15.7319 241.353 15.3649 240.141 15.3649C239.482 15.3649 238.871 15.434 238.308 15.5727C237.745 15.7107 237.219 15.9605 236.73 16.3211C237.07 16.5127 237.309 16.7467 237.447 17.0229C237.585 17.2988 237.654 17.597 237.654 17.9157C237.654 18.3832 237.495 18.7653 237.176 19.0635C236.857 19.3606 236.486 19.5095 236.06 19.5095C235.614 19.5095 235.237 19.35 234.928 19.0314C234.621 18.7124 234.467 18.2766 234.467 17.724C234.467 17.1719 234.637 16.6722 234.976 16.2255C235.316 15.7795 235.774 15.3974 236.348 15.0784C236.921 14.7598 237.564 14.5152 238.276 14.3451C238.988 14.1751 239.705 14.09 240.428 14.09C241.447 14.09 242.372 14.2333 243.201 14.5205C244.03 14.8074 244.694 15.3067 245.193 16.0187C245.693 16.7304 245.943 17.735 245.943 19.0314V26.6188C245.943 26.9162 246.012 27.2133 246.15 27.5107C246.288 27.809 246.56 27.9575 246.963 27.9575C247.261 27.9575 247.526 27.8509 247.76 27.6389C247.994 27.4257 248.217 27.1819 248.43 26.9053L249.29 27.6389C249.035 27.9994 248.759 28.3131 248.461 28.5788C248.164 28.8445 247.834 29.0471 247.473 29.1847C247.112 29.3227 246.698 29.3918 246.229 29.3918ZM243.393 26.045V24.3235C242.712 23.6008 242.022 23.1012 241.32 22.8245C240.619 22.549 239.96 22.4103 239.343 22.4103C238.345 22.4103 237.548 22.6601 236.953 23.1594C236.358 23.659 236.06 24.3341 236.06 25.1837C236.06 26.0129 236.358 26.6827 236.953 27.1929C237.548 27.7024 238.345 27.9575 239.343 27.9575C239.96 27.9575 240.619 27.8195 241.32 27.5429C242.022 27.2662 242.712 26.7677 243.393 26.045ZM264.608 27.798L264.767 27.9575H267.158V29.0732H259.508V27.9575H261.898L262.057 27.798V18.8719C262.057 17.8306 261.877 17.0124 261.516 16.4171C261.155 15.8218 260.485 15.5244 259.508 15.5244C258.615 15.5244 257.759 15.8279 256.941 16.433C256.123 17.0384 255.278 18.0642 254.407 19.5095V27.798L254.566 27.9575H256.957V29.0732H249.306V27.9575H251.697L251.856 27.798V15.6839L251.697 15.5244H249.306V14.4086C249.859 14.4086 250.395 14.4033 250.916 14.3928C251.436 14.3822 251.958 14.3667 252.478 14.3451C252.999 14.3236 253.536 14.2915 254.088 14.2495L254.248 14.4086V17.4376H254.407C255.023 16.4386 255.799 15.6309 256.734 15.0149C257.668 14.3981 258.827 14.09 260.209 14.09C261.313 14.09 262.185 14.2764 262.823 14.6479C263.46 15.0194 263.917 15.5191 264.193 16.1465C264.469 16.7731 264.608 17.4689 264.608 18.2343V27.798ZM280.219 24.1319V19.35C279.625 17.9901 278.923 17.0124 278.115 16.4171C277.308 15.8218 276.468 15.5244 275.597 15.5244C274.385 15.5244 273.392 15.9866 272.616 16.9111C271.841 17.8359 271.452 19.3394 271.452 21.4227C271.452 23.5052 271.841 25.1149 272.616 26.2518C273.392 27.389 274.385 27.9575 275.597 27.9575C276.468 27.9575 277.308 27.66 278.115 27.0648C278.923 26.4695 279.625 25.4917 280.219 24.1319ZM110.445 41.0664C112.081 41.0664 113.564 41.3053 114.892 41.7834C116.221 42.2615 117.358 42.9471 118.304 43.8398C119.249 44.7325 119.982 45.8158 120.503 47.0917C121.024 48.3666 121.284 49.8115 121.284 51.4268C121.284 52.9999 121.013 54.4554 120.472 55.7941C119.93 57.1336 119.169 58.2973 118.192 59.2849C117.214 60.2732 116.067 61.0431 114.749 61.5964C113.431 62.149 111.996 62.4256 110.445 62.4256H100.562V61.3099H103.113L103.272 61.1497V44.5863H106.141V61.1497L106.301 61.3099H110.445C112.018 61.3099 113.389 60.9161 114.558 60.13C115.726 59.3438 116.635 58.233 117.283 56.7987C117.931 55.3644 118.256 53.6794 118.256 51.7462C118.256 49.8965 117.915 48.2494 117.235 46.8045C116.555 45.3592 115.583 44.2276 114.318 43.4093C113.054 42.5911 111.551 42.1817 109.808 42.1817C106.726 42.1817 103.644 42.1817 100.562 42.1817V41.0664H110.445ZM131.183 61.4687C132.309 61.4687 133.26 61.2143 134.036 60.7037C134.811 60.1935 135.486 59.6303 136.059 59.0142L136.921 59.7475C136.474 60.2785 135.969 60.7729 135.406 61.2294C134.843 61.6868 134.185 62.053 133.43 62.3296C132.675 62.6056 131.767 62.7443 130.704 62.7443C129.407 62.7443 128.201 62.4362 127.086 61.8194C125.97 61.2033 125.072 60.3216 124.392 59.1737C123.712 58.0259 123.372 56.666 123.372 55.093C123.372 53.5199 123.712 52.1601 124.392 51.0122C125.072 49.8644 125.97 48.9826 127.086 48.3666C128.201 47.7497 129.407 47.4425 130.704 47.4425C132.022 47.4425 133.153 47.6968 134.1 48.2071C135.045 48.7177 135.778 49.4929 136.299 50.5341C136.82 51.5754 137.08 52.8827 137.08 54.4554H125.922V53.34H134.019C133.935 51.8097 133.631 50.6297 133.111 49.8009C132.59 48.9728 131.735 48.5582 130.544 48.5582C129.503 48.5582 128.659 48.8341 128.01 49.3863C127.362 49.9388 126.89 50.7095 126.592 51.6978C126.294 52.6866 126.145 53.8181 126.145 55.093C126.145 56.3467 126.38 57.4522 126.847 58.4084C127.314 59.3646 127.931 60.1137 128.696 60.6557C129.461 61.1981 130.289 61.4687 131.183 61.4687ZM147.106 47.7607H152.908V48.8768H150.995L146.086 62.4256H144.014L138.69 48.8768H136.459V47.7607H143.823V48.8768H141.75L141.591 49.0363L145.608 59.5562H145.767L149.497 49.0363L149.338 48.8768H147.106V47.7607ZM160.734 61.4687C161.86 61.4687 162.812 61.2143 163.588 60.7037C164.363 60.1935 165.038 59.6303 165.612 59.0142L166.473 59.7475C166.026 60.2785 165.521 60.7729 164.958 61.2294C164.395 61.6868 163.736 62.053 162.982 62.3296C162.227 62.6056 161.319 62.7443 160.256 62.7443C158.96 62.7443 157.754 62.4362 156.638 61.8194C155.522 61.2033 154.624 60.3216 153.944 59.1737C153.265 58.0259 152.924 56.666 152.924 55.093C152.924 53.5199 153.265 52.1601 153.944 51.0122C154.624 49.8644 155.522 48.9826 156.638 48.3666C157.754 47.7497 158.96 47.4425 160.256 47.4425C161.574 47.4425 162.706 47.6968 163.652 48.2071C164.597 48.7177 165.331 49.4929 165.851 50.5341C166.372 51.5754 166.632 52.8827 166.632 54.4554H155.474V53.34H163.571C163.486 51.8097 163.184 50.6297 162.664 49.8009C162.142 48.9728 161.287 48.5582 160.097 48.5582C159.056 48.5582 158.211 48.8341 157.562 49.3863C156.914 49.9388 156.441 50.7095 156.144 51.6978C155.847 52.6866 155.697 53.8181 155.697 55.093C155.697 56.3467 155.932 57.4522 156.399 58.4084C156.867 59.3646 157.483 60.1137 158.248 60.6557C159.013 61.1981 159.841 61.4687 160.734 61.4687ZM167.924 62.4256V61.3099H170.314L170.473 61.1497V40.4288L170.314 40.2693H167.924V39.154C168.476 39.154 169.023 39.1487 169.565 39.1377C170.107 39.1271 170.654 39.1109 171.206 39.0901C171.759 39.0689 172.312 39.0368 172.864 38.9945L173.024 39.154V61.1497L173.183 61.3099H175.574V62.4256H167.924ZM184.676 47.4425C185.993 47.4425 187.205 47.7497 188.31 48.3666C189.415 48.9826 190.308 49.8644 190.987 51.0122C191.668 52.1601 192.008 53.5199 192.008 55.093C192.008 56.666 191.668 58.0259 190.987 59.1737C190.308 60.3216 189.415 61.2033 188.31 61.8194C187.205 62.4362 185.993 62.7443 184.676 62.7443C183.379 62.7443 182.173 62.4362 181.057 61.8194C179.942 61.2033 179.044 60.3216 178.364 59.1737C177.684 58.0259 177.343 56.666 177.343 55.093C177.343 53.5199 177.684 52.1601 178.364 51.0122C179.044 49.8644 179.942 48.9826 181.057 48.3666C182.173 47.7497 183.379 47.4425 184.676 47.4425ZM184.835 61.6278C185.897 61.6278 186.743 61.3466 187.37 60.7834C187.996 60.2203 188.448 59.4496 188.724 58.4719C189.001 57.4949 189.138 56.3678 189.138 55.093C189.138 53.8397 188.937 52.7179 188.533 51.7296C188.13 50.7416 187.582 49.9657 186.891 49.4025C186.2 48.8394 185.409 48.5582 184.516 48.5582C183.475 48.5582 182.635 48.8341 181.998 49.3863C181.36 49.9388 180.904 50.7095 180.627 51.6978C180.351 52.6866 180.212 53.8181 180.212 55.093C180.212 56.3467 180.414 57.468 180.818 58.4568C181.222 59.4451 181.769 60.2203 182.46 60.7834C183.151 61.3466 183.942 61.6278 184.835 61.6278ZM203.22 47.4425C204.495 47.4425 205.627 47.7558 206.615 48.3828C207.603 49.0095 208.379 49.8912 208.942 51.0285C209.506 52.1654 209.787 53.4992 209.787 55.0295C209.787 56.5594 209.506 57.9042 208.942 59.0619C208.379 60.2203 207.603 61.1236 206.615 61.7718C205.627 62.42 204.495 62.7443 203.22 62.7443C201.881 62.7443 200.802 62.4461 199.985 61.8515C199.166 61.2563 198.555 60.5446 198.151 59.7153V68.7756L198.311 68.9351H201.977V70.0508H193.051V68.9351H195.442L195.601 68.7756V49.0363L195.442 48.8768H193.051V47.7607C193.603 47.7607 194.14 47.7558 194.661 47.7452C195.181 47.7346 195.702 47.7184 196.223 47.6968C196.744 47.6753 197.28 47.6439 197.832 47.602L197.992 47.7607V50.4706H198.151C198.555 49.7264 199.187 49.0363 200.048 48.3987C200.909 47.7607 201.966 47.4425 203.22 47.4425ZM202.774 61.3099C203.985 61.3099 204.979 60.8473 205.754 59.9232C206.53 58.9984 206.918 57.4949 206.918 55.4116C206.918 53.3291 206.53 51.7194 205.754 50.5825C204.979 49.4452 203.985 48.8768 202.774 48.8768C201.903 48.8768 201.063 49.1742 200.255 49.7695C199.448 50.364 198.747 51.3418 198.151 52.7024V57.4843C198.747 58.8442 199.448 59.8219 200.255 60.4165C201.063 61.0117 201.903 61.3099 202.774 61.3099ZM236.581 61.3099H238.972V62.4256H231.481V61.3099H233.712L233.872 61.1497V52.2243C233.872 51.1823 233.69 50.364 233.33 49.7695C232.969 49.1742 232.299 48.8768 231.321 48.8768C230.429 48.8768 229.627 49.1795 228.915 49.7854C228.202 50.3909 227.411 51.4159 226.539 52.8619V61.1497L226.699 61.3099H228.93V62.4256H221.598V61.3099H223.83L223.989 61.1497V52.2243C223.989 51.1823 223.809 50.364 223.447 49.7695C223.086 49.1742 222.417 48.8768 221.439 48.8768C220.546 48.8768 219.744 49.1795 219.032 49.7854C218.32 50.3909 217.528 51.4159 216.657 52.8619V61.1497L216.817 61.3099H219.048V62.4256H211.557V61.3099H213.947L214.107 61.1497V49.0363L213.947 48.8768H211.557V47.7607C212.109 47.7607 212.646 47.7558 213.166 47.7452C213.687 47.7346 214.208 47.7184 214.728 47.6968C215.249 47.6753 215.786 47.6439 216.339 47.602L216.498 47.7607V50.7892H216.657C217.273 49.7903 217.996 48.9826 218.825 48.3666C219.654 47.7497 220.759 47.4425 222.14 47.4425C223.585 47.4425 224.642 47.7607 225.312 48.3987C225.982 49.0363 226.38 49.844 226.507 50.8214C227.124 49.7589 227.857 48.9297 228.707 48.3344C229.558 47.7399 230.663 47.4425 232.022 47.4425C233.127 47.4425 233.999 47.628 234.637 47.9996C235.274 48.3719 235.731 48.8715 236.008 49.4982C236.284 50.1252 236.422 50.8214 236.422 51.586V61.1497L236.581 61.3099ZM248.553 61.4687C249.679 61.4687 250.629 61.2143 251.405 60.7037C252.181 60.1935 252.855 59.6303 253.429 59.0142L254.29 59.7475C253.844 60.2785 253.339 60.7729 252.776 61.2294C252.213 61.6868 251.553 62.053 250.799 62.3296C250.045 62.6056 249.136 62.7443 248.074 62.7443C246.777 62.7443 245.571 62.4362 244.456 61.8194C243.34 61.2033 242.442 60.3216 241.761 59.1737C241.082 58.0259 240.742 56.666 240.742 55.093C240.742 53.5199 241.082 52.1601 241.761 51.0122C242.442 49.8644 243.34 48.9826 244.456 48.3666C245.571 47.7497 246.777 47.4425 248.074 47.4425C249.391 47.4425 250.523 47.6968 251.469 48.2071C252.415 48.7177 253.148 49.4929 253.668 50.5341C254.189 51.5754 254.45 52.8827 254.45 54.4554H243.292V53.34H251.389C251.304 51.8097 251.001 50.6297 250.481 49.8009C249.96 48.9728 249.105 48.5582 247.914 48.5582C246.873 48.5582 246.029 48.8341 245.38 49.3863C244.731 49.9388 244.259 50.7095 243.961 51.6978C243.664 52.6866 243.515 53.8181 243.515 55.093C243.515 56.3467 243.749 57.4522 244.217 58.4084C244.684 59.3646 245.301 60.1137 246.065 60.6557C246.831 61.1981 247.659 61.4687 248.553 61.4687ZM271.202 61.1497L271.361 61.3099H273.753V62.4256H266.101V61.3099H268.493L268.651 61.1497V52.2243C268.651 51.1823 268.471 50.364 268.109 49.7695C267.749 49.1742 267.079 48.8768 266.101 48.8768C265.209 48.8768 264.354 49.1795 263.535 49.7854C262.717 50.3909 261.872 51.4159 261.001 52.8619V61.1497L261.16 61.3099H263.552V62.4256H255.9V61.3099H258.292L258.45 61.1497V49.0363L258.292 48.8768H255.9V47.7607C256.453 47.7607 256.99 47.7558 257.51 47.7452C258.031 47.7346 258.551 47.7184 259.072 47.6968C259.593 47.6753 260.13 47.6439 260.682 47.602L260.841 47.7607V50.7892H261.001C261.617 49.7903 262.393 48.9826 263.328 48.3666C264.263 47.7497 265.421 47.4425 266.803 47.4425C267.908 47.4425 268.779 47.628 269.417 47.9996C270.054 48.3719 270.512 48.8715 270.788 49.4982C271.064 50.1252 271.202 50.8214 271.202 51.586V61.1497Z" fill="#28282D"></path> </svg> 