<?xml version="1.0" encoding="UTF-8"?> <svg xmlns="http://www.w3.org/2000/svg" width="100" height="100" viewBox="0 0 100 100" fill="none"> <rect width="100" height="100" rx="20" fill="#008649"></rect> <path fill-rule="evenodd" clip-rule="evenodd" d="M41.2257 68.4174L30.3062 71.8924L27 72.9444L31.6447 59.2254C30.8653 57.7927 30.2479 56.2749 29.808 54.7031C29.2744 52.7959 29.0051 50.8249 29.0051 48.8445C29.0051 43.0171 31.3237 37.4925 35.4569 33.3925C39.6036 29.2792 45.1696 27 51.0091 27C56.8468 27 62.4098 29.2819 66.5529 33.3958C70.6844 37.4983 73 43.0242 73 48.8515C73 54.6779 70.6819 60.2019 66.5499 64.3016C62.4048 68.4143 56.8406 70.6942 51.0025 70.6942C49.1503 70.6942 47.305 70.4655 45.5104 70.0064C44.0304 69.6278 42.594 69.0943 41.2256 68.4174L41.2257 68.4174Z" fill="white"></path> <path fill-rule="evenodd" clip-rule="evenodd" d="M71.2449 48.8472C71.2449 43.298 68.9791 38.2737 65.316 34.6364C61.6533 30.9995 56.5946 28.75 51.0083 28.75C45.4171 28.75 40.356 30.9987 36.6915 34.6336C33.0255 38.2702 30.7586 43.2935 30.7586 48.8402C30.7586 50.7021 31.0161 52.5088 31.4966 54.226C31.974 55.9321 32.6725 57.5475 33.5578 59.0385L30.0507 69.3974L29.7734 70.2163L30.5972 69.9542L41.3842 66.5214C42.8123 67.2899 44.3403 67.8921 45.9444 68.3026C47.5606 68.716 49.2544 68.9356 51.0017 68.9356C56.5904 68.9356 61.65 66.6867 65.3134 63.052C68.9784 59.4156 71.2449 54.3928 71.2449 48.8472L71.2449 48.8472Z" fill="white"></path> <path fill-rule="evenodd" clip-rule="evenodd" d="M47.7169 43.3646C47.628 43.1855 47.1151 41.9467 46.6423 40.8048C46.3401 40.0748 46.0518 39.3786 45.9953 39.244C45.4628 37.9745 44.8744 38.0128 44.423 38.0421C44.3934 38.044 44.3648 38.0459 44.3266 38.0459C44.1691 38.0459 44.0143 38.0361 43.8539 38.0259C43.6534 38.0132 43.4452 38 43.2485 38C42.9869 38 42.6307 38.0543 42.2556 38.2298C41.9774 38.36 41.6904 38.5561 41.4277 38.8447C41.3894 38.8861 41.3605 38.9164 41.3292 38.9494C40.7042 39.6063 39.3418 41.0384 39.3418 43.7887C39.3418 46.6737 41.4222 49.4173 41.728 49.8202L41.7269 49.821L41.7297 49.8248L41.7331 49.8282C41.7451 49.8436 41.7893 49.9082 41.8545 50.0037C42.6229 51.1274 46.1551 56.2934 51.5246 58.3906C56.3959 60.2914 57.2773 60.0781 58.0647 59.8876C58.1987 59.8551 58.3296 59.8234 58.4712 59.8104C59.1087 59.7504 60.1518 59.314 61.0295 58.701C61.7576 58.1926 62.3932 57.55 62.6366 56.8734C62.8537 56.2685 62.9764 55.7065 63.0333 55.2439C63.116 54.5719 63.0506 54.0432 62.9283 53.839L62.9266 53.8373C62.7407 53.531 62.4192 53.3792 61.9368 53.1515C61.8518 53.1113 61.7608 53.0684 61.6735 53.0261L61.6737 53.0255C61.3411 52.8564 60.1904 52.2938 59.2068 51.8288C58.5712 51.5283 58.0064 51.2702 57.7828 51.1899C57.4682 51.0769 57.1941 50.9915 56.9002 51.0246C56.5671 51.0622 56.2764 51.2338 56.007 51.6419L56.0062 51.6414C55.8709 51.8446 55.6325 52.1494 55.372 52.4685C54.9594 52.974 54.4671 53.5415 54.2573 53.7798V53.7816C54.1678 53.8835 54.0905 53.9391 54.0148 53.9482C53.9097 53.9609 53.7652 53.9178 53.5651 53.8196C53.4372 53.7556 53.3126 53.7018 53.1588 53.6354C52.3809 53.2998 50.8659 52.6461 49.1392 51.1173C48.5215 50.5706 47.978 49.973 47.524 49.4122C46.7892 48.5047 46.2927 47.6961 46.0954 47.3555C45.9396 47.0884 46.1127 46.9153 46.2724 46.7555L46.2716 46.7546C46.4483 46.5781 46.6482 46.3378 46.8489 46.0967C46.9403 45.9869 47.0317 45.877 47.1428 45.7489L47.1445 45.7472C47.4151 45.4326 47.5273 45.2034 47.6787 44.8941C47.7051 44.8403 47.7327 44.7839 47.7605 44.7284L47.7622 44.7268C47.8953 44.4585 47.9294 44.2032 47.9046 43.9641C47.8816 43.7415 47.8071 43.5428 47.7162 43.3649L47.7169 43.3646Z" fill="#008649"></path> </svg> 