<?xml version="1.0" encoding="UTF-8"?> <svg xmlns="http://www.w3.org/2000/svg" width="100" height="100" viewBox="0 0 100 100" fill="none"> <rect width="100" height="100" rx="20" fill="#008649"></rect> <path d="M72.9775 50.0055C72.9775 53.232 72.9126 56.4678 72.9961 59.6943C73.1352 65.4055 69.5471 69.8188 64.9762 71.7844C63.1404 72.5724 61.212 72.9897 59.2186 72.9897C52.9788 72.9989 46.7298 73.0824 40.4901 72.9618C35.7894 72.8691 31.9232 70.9036 29.151 67.0281C27.6954 64.9883 27 62.6704 27 60.1578C27 53.5102 27 46.8717 27 40.224C27 34.8002 29.6424 31.0081 34.3338 28.5419C36.3735 27.4757 38.5894 27.0214 40.898 27.0121C46.9523 27.0121 53.0159 26.975 59.0702 27.0307C63.7709 27.0677 67.6928 28.8664 70.5855 32.6492C72.1987 34.7631 72.9775 37.1923 72.9775 39.8625C72.9775 43.2373 72.9775 46.6214 72.9775 50.0055ZM30.4212 50.0055C30.4212 53.4082 30.4212 56.8016 30.4212 60.2042C30.4212 61.7247 30.7735 63.1526 31.5616 64.4413C33.6291 67.8254 36.7537 69.4757 40.6292 69.5406C46.8504 69.6334 53.0808 69.5777 59.3113 69.5592C60.8411 69.5592 62.3246 69.244 63.706 68.5857C67.4703 66.787 69.5749 63.9221 69.5564 59.6201C69.5193 53.0373 69.5471 46.4545 69.5471 39.8717C69.5471 38.0082 69.0186 36.3022 67.9153 34.8002C65.7828 31.9168 62.8345 30.4982 59.3113 30.4611C53.0994 30.3869 46.8874 30.4333 40.6755 30.4426C39.3497 30.4426 38.0702 30.7115 36.8278 31.175C33.4159 32.4452 30.245 35.6625 30.3934 40.4002C30.5046 43.6082 30.4212 46.8068 30.4212 50.0055Z" fill="white"></path> <path d="M50.0391 59.8324C44.059 59.8324 39.2378 55.0668 39.2285 49.133C39.2193 43.2919 44.0775 38.5078 50.0206 38.5078C55.9822 38.4986 60.8219 43.2734 60.8312 49.1608C60.8312 55.039 56.0007 59.8231 50.0391 59.8324ZM50.0391 56.4019C54.1093 56.4019 57.41 53.1476 57.4007 49.1423C57.3915 45.1741 54.0908 41.929 50.0391 41.929C45.9689 41.929 42.6497 45.1648 42.6497 49.1608C42.659 53.1661 45.9689 56.4112 50.0391 56.4019Z" fill="white"></path> <path d="M62.0826 35.2656C63.3343 35.2656 64.3542 36.3319 64.3542 37.6391C64.3449 38.9464 63.3157 40.0034 62.0641 39.9941C60.831 39.9848 59.8204 38.9279 59.8204 37.6484C59.8111 36.3411 60.831 35.2656 62.0826 35.2656Z" fill="white"></path> </svg> 