<?xml version="1.0" encoding="UTF-8"?> <svg xmlns="http://www.w3.org/2000/svg" width="286" height="71" viewBox="0 0 286 71" fill="none"> <g clip-path="url(#clip0_108_315)"> <path d="M78.4252 61.3686H59.7895V13.9725L78.4252 29.9785V61.3686ZM2.15282 61.3686H20.7882V13.9725L2.15282 29.9785V61.3686ZM22.941 61.3686H33.0799V3.41556L22.941 12.124V61.3686ZM34.1563 63.5214H1.07641C0.482268 63.5214 0 63.0391 0 62.445V29.4879C0.00340157 29.1851 0.130772 28.8843 0.378331 28.6723L33.3993 0.311811C33.594 0.119433 33.8612 0 34.1563 0C34.7505 0 35.2328 0.482268 35.2328 1.07641V62.445C35.2328 63.0391 34.7505 63.5214 34.1563 63.5214ZM57.637 61.3686H47.4977V3.41556L57.637 12.124V61.3686ZM46.4213 63.5214H79.5012C80.0957 63.5214 80.5776 63.0391 80.5776 62.445V29.4879C80.5746 29.1851 80.4473 28.8843 80.1993 28.6723L47.1783 0.311811C46.9841 0.119433 46.7168 0 46.4213 0C45.8271 0 45.3449 0.482268 45.3449 1.07641V62.445C45.3449 63.0391 45.8271 63.5214 46.4213 63.5214Z" fill="#008649"></path> <path d="M283.244 59.9689L284.105 60.7021C283.765 61.1912 283.324 61.653 282.782 62.0892C282.24 62.5242 281.501 62.7427 280.567 62.7427C279.971 62.7427 279.408 62.6255 278.877 62.3915C278.345 62.158 277.915 61.7702 277.585 61.2278C277.256 60.6862 277.09 59.9689 277.09 59.0765V49.0347L276.932 48.8752H274.222V47.7591C275.496 47.6737 276.512 47.0954 277.266 46.022C278.02 44.9486 278.44 43.2966 278.525 41.0648H279.641V47.7591H283.786V48.8752H279.8L279.641 49.0347V59.2678C279.641 59.9689 279.79 60.4848 280.088 60.8132C280.386 61.1428 280.767 61.3083 281.235 61.3083C281.66 61.3083 282.026 61.1859 282.335 60.9413C282.643 60.6968 282.946 60.3729 283.244 59.9689ZM282.77 27.7964L282.929 27.9559H285.322V29.0716C284.768 29.0716 284.22 29.0769 283.679 29.0875C283.136 29.0981 282.589 29.1143 282.037 29.1351C281.484 29.1566 280.931 29.1888 280.378 29.2307L280.219 29.0716V26.3613C279.815 27.1063 279.184 27.7964 278.324 28.434C277.463 29.0716 276.405 29.3902 275.152 29.3902C273.876 29.3902 272.744 29.0769 271.757 28.4499C270.768 27.8232 269.992 26.9415 269.429 25.8042C268.866 24.6673 268.585 23.3335 268.585 21.8032C268.585 20.2732 268.866 18.9285 269.429 17.7708C269.992 16.6124 270.768 15.7091 271.757 15.0609C272.744 14.4127 273.876 14.0884 275.152 14.0884C276.49 14.0884 277.568 14.3859 278.387 14.9811C279.205 15.5764 279.815 16.2881 280.219 17.1173V7.4187L280.061 7.25921H277.67V6.14388C278.223 6.14388 278.774 6.13858 279.327 6.12762C279.879 6.11779 280.427 6.10155 280.968 6.08038C281.51 6.05884 282.058 6.02671 282.611 5.98438L282.77 6.14388V27.7964ZM110.446 7.71238C112.082 7.71238 113.565 7.952 114.893 8.43011C116.222 8.90822 117.359 9.59308 118.305 10.4858C119.25 11.3785 119.983 12.4625 120.504 13.7377C121.025 15.0133 121.285 16.4582 121.285 18.0736C121.285 19.6458 121.014 21.1013 120.473 22.4408C119.931 23.7791 119.17 24.9432 118.193 25.9316C117.215 26.9199 116.068 27.6898 114.75 28.2431C113.432 28.7957 111.997 29.0716 110.446 29.0716H100.562V27.9559H103.114L103.273 27.7964V11.2322H106.142V27.7964L106.302 27.9559H110.446C112.019 27.9559 113.39 27.5628 114.559 26.7759C115.727 25.9898 116.636 24.8797 117.284 23.4446C117.932 22.0103 118.257 20.3262 118.257 18.3922C118.257 16.5432 117.916 14.8961 117.236 13.4508C116.556 12.0051 115.584 10.8743 114.319 10.056C113.055 9.23779 111.552 8.82847 109.809 8.82847C106.727 8.82847 103.645 8.82847 100.562 8.82847V7.71238H110.446ZM128.193 17.9141C128.81 16.8301 129.569 15.9158 130.473 15.172C131.376 14.4286 132.349 14.0669 133.39 14.0884C133.921 14.0884 134.35 14.1844 134.68 14.3757C135.009 14.5665 135.249 14.8164 135.398 15.1244C135.547 15.4324 135.622 15.7779 135.622 16.1604C135.622 16.7133 135.441 17.1703 135.079 17.5316C134.718 17.8925 134.261 18.0736 133.708 18.0736C133.156 18.0736 132.699 17.8925 132.338 17.5316C131.977 17.1703 131.796 16.7133 131.796 16.1604C131.796 15.9695 131.859 15.7144 131.986 15.3958C132.114 15.0768 132.252 14.8432 132.4 14.6939L132.37 15.5228C131.966 15.6509 131.551 15.8629 131.126 16.1604C130.701 16.4582 130.25 16.9151 129.771 17.5316C129.293 18.1476 128.767 19.0188 128.193 20.1451V27.7964L128.353 27.9559H132.019V29.0716H123.093V27.9559H125.484L125.643 27.7964V15.6823L125.484 15.5228H123.093V14.407C123.645 14.407 124.182 14.4017 124.703 14.3912C125.223 14.3806 125.744 14.3651 126.265 14.3435C126.786 14.322 127.322 14.2899 127.875 14.2479L128.034 14.407V17.9141H128.193ZM143.926 28.1154C145.052 28.1154 146.004 27.8599 146.779 27.3497C147.554 26.8402 148.229 26.277 148.803 25.6602L149.663 26.3934C149.217 26.9245 148.713 27.4196 148.15 27.8761C147.586 28.3327 146.928 28.6997 146.174 28.9756C145.419 29.2523 144.51 29.3902 143.448 29.3902C142.151 29.3902 140.945 29.0822 139.829 28.4654C138.714 27.8493 137.815 26.9675 137.135 25.8197C136.454 24.6719 136.115 23.312 136.115 21.7397C136.115 20.1667 136.454 18.8068 137.135 17.6589C137.815 16.5111 138.714 15.6293 139.829 15.0133C140.945 14.3965 142.151 14.0884 143.448 14.0884C144.765 14.0884 145.896 14.3435 146.842 14.8538C147.788 15.3633 148.521 16.1396 149.042 17.1808C149.563 18.2221 149.823 19.5291 149.823 21.1013H138.665V19.986H146.762C146.677 18.4557 146.375 17.2765 145.854 16.4476C145.334 15.6188 144.478 15.2041 143.288 15.2041C142.247 15.2041 141.402 15.4808 140.753 16.033C140.105 16.5856 139.632 17.3562 139.335 18.3446C139.038 19.3321 138.889 20.4641 138.889 21.7397C138.889 22.9934 139.121 24.0989 139.59 25.0551C140.057 26.0113 140.674 26.7604 141.439 27.3024C142.205 27.844 143.033 28.1154 143.926 28.1154ZM163.833 29.3902C163.111 29.3902 162.495 29.2307 161.986 28.9121C161.475 28.5935 161.146 28.1154 160.997 27.4778C160.508 28.0303 159.882 28.4869 159.116 28.8486C158.352 29.2099 157.436 29.3902 156.374 29.3902C154.695 29.3902 153.399 28.9756 152.486 28.1475C151.572 27.3183 151.114 26.3299 151.114 25.1821C151.114 24.0138 151.572 23.0198 152.486 22.2016C153.399 21.3833 154.695 20.9743 156.374 20.9743C157.436 20.9743 158.352 21.155 159.116 21.516C159.882 21.8777 160.508 22.3342 160.997 22.8875V19.5079C160.997 18.2115 160.758 17.1971 160.28 16.4639C159.801 15.7303 158.957 15.3633 157.745 15.3633C157.087 15.3633 156.476 15.4324 155.913 15.5711C155.35 15.7091 154.822 15.9589 154.333 16.3195C154.674 16.5111 154.913 16.7451 155.051 17.0213C155.189 17.2972 155.258 17.5954 155.258 17.9141C155.258 18.3816 155.1 18.7637 154.78 19.0619C154.461 19.359 154.09 19.5079 153.665 19.5079C153.219 19.5079 152.841 19.3484 152.533 19.0298C152.225 18.7108 152.071 18.275 152.071 17.7224C152.071 17.1703 152.241 16.6706 152.581 16.2239C152.921 15.7779 153.378 15.3958 153.952 15.0768C154.526 14.7582 155.168 14.5136 155.881 14.3435C156.592 14.1735 157.309 14.0884 158.032 14.0884C159.052 14.0884 159.976 14.2317 160.805 14.5189C161.634 14.8058 162.299 15.3051 162.799 16.0171C163.298 16.7288 163.547 17.7334 163.547 19.0298V26.6172C163.547 26.9146 163.616 27.2117 163.755 27.5091C163.893 27.8074 164.164 27.9559 164.568 27.9559C164.865 27.9559 165.131 27.8493 165.365 27.6373C165.598 27.4241 165.821 27.1803 166.034 26.9037L166.895 27.6373C166.639 27.9978 166.364 28.3115 166.066 28.5772C165.768 28.8429 165.439 29.0455 165.077 29.1831C164.716 29.3211 164.301 29.3902 163.833 29.3902ZM160.997 26.0434V24.3219C160.317 23.5992 159.625 23.0996 158.924 22.8229C158.223 22.5474 157.565 22.4087 156.949 22.4087C155.949 22.4087 155.153 22.6585 154.557 23.1578C153.963 23.6574 153.665 24.3325 153.665 25.1821C153.665 26.0113 153.963 26.6811 154.557 27.1913C155.153 27.7008 155.949 27.9559 156.949 27.9559C157.565 27.9559 158.223 27.8179 158.924 27.5413C159.625 27.2646 160.317 26.7661 160.997 26.0434ZM191.935 27.9559H194.327V29.0716H186.835V27.9559H189.066L189.226 27.7964V18.8703C189.226 17.829 189.045 17.0108 188.684 16.4155C188.323 15.8202 187.652 15.5228 186.674 15.5228C185.782 15.5228 184.981 15.8263 184.269 16.4314C183.556 17.0368 182.765 18.0626 181.894 19.5079V27.7964L182.053 27.9559H184.284V29.0716H176.952V27.9559H179.184L179.344 27.7964V18.8703C179.344 17.829 179.163 17.0108 178.801 16.4155C178.44 15.8202 177.771 15.5228 176.793 15.5228C175.9 15.5228 175.097 15.8263 174.385 16.4314C173.674 17.0368 172.881 18.0626 172.01 19.5079V27.7964L172.171 27.9559H174.402V29.0716H166.911V27.9559H169.301L169.461 27.7964V15.6823L169.301 15.5228H166.911V14.407C167.463 14.407 167.999 14.4017 168.521 14.3912C169.041 14.3806 169.562 14.3651 170.083 14.3435C170.603 14.322 171.14 14.2899 171.693 14.2479L171.852 14.407V17.436H172.01C172.626 16.437 173.349 15.6293 174.178 15.0133C175.007 14.3965 176.113 14.0884 177.493 14.0884C178.938 14.0884 179.996 14.407 180.665 15.0446C181.335 15.6823 181.733 16.4896 181.861 17.4673C182.477 16.4045 183.212 15.5764 184.062 14.9811C184.912 14.3859 186.017 14.0884 187.377 14.0884C188.482 14.0884 189.353 14.2748 189.991 14.6463C190.628 15.0178 191.086 15.5175 191.361 16.1449C191.638 16.7715 191.775 17.4673 191.775 18.2327V27.7964L191.935 27.9559ZM209.534 8.82847H206.984L206.824 8.98796V27.7964L206.984 27.9559H209.534V29.0716H201.245V27.9559H203.796L203.954 27.7964V8.98796L203.796 8.82847H201.245V7.71238H209.534V8.82847ZM214.217 17.5633C214.217 18.1371 214.434 18.5883 214.87 18.9187C215.306 19.2471 215.87 19.5238 216.561 19.7468C217.252 19.9705 217.983 20.1988 218.76 20.4327C219.535 20.6663 220.269 20.9581 220.96 21.3092C221.651 21.66 222.214 22.1275 222.65 22.7122C223.086 23.2957 223.303 24.0668 223.303 25.023C223.303 26.0854 223.032 26.9415 222.49 27.5889C221.948 28.2371 221.289 28.6997 220.514 28.9756C219.738 29.2523 218.989 29.3902 218.266 29.3902C217.395 29.3902 216.614 29.2738 215.923 29.0391C215.232 28.8063 214.611 28.4975 214.059 28.1154L213.579 29.0716H212.368C212.241 28.2431 212.087 27.4196 211.906 26.6005C211.725 25.783 211.508 24.9591 211.253 24.1303L212.305 23.8116C212.879 25.0022 213.527 25.921 214.249 26.5692C214.972 27.2174 215.683 27.663 216.385 27.9083C217.085 28.152 217.692 28.2745 218.202 28.2745C218.945 28.2745 219.61 28.0678 220.195 27.6531C220.78 27.2385 221.071 26.6066 221.071 25.7562C221.071 25.0971 220.854 24.5815 220.418 24.21C219.983 23.8385 219.419 23.5357 218.729 23.301C218.037 23.0674 217.305 22.8392 216.529 22.6162C215.753 22.3924 215.02 22.1222 214.329 21.8032C213.639 21.4846 213.076 21.0431 212.639 20.48C212.204 19.9168 211.986 19.1783 211.986 18.2644C211.986 17.3294 212.241 16.5542 212.751 15.9374C213.262 15.3213 213.915 14.8583 214.712 14.5507C215.509 14.2426 216.352 14.0884 217.245 14.0884C217.925 14.0884 218.553 14.1788 219.127 14.359C219.701 14.5397 220.169 14.7789 220.53 15.0768L220.848 14.407H222.06C222.166 15.1297 222.299 15.8523 222.458 16.5746C222.618 17.2972 222.804 18.0199 223.016 18.7433L221.964 19.0619C221.497 17.9141 220.886 16.9839 220.132 16.2722C219.377 15.5602 218.404 15.2041 217.214 15.2041C216.109 15.2041 215.333 15.454 214.887 15.9532C214.441 16.4529 214.217 16.9892 214.217 17.5633ZM224.568 29.0716V27.9559H226.96L227.118 27.7964V7.4187L226.96 7.25921H224.568V6.14388C225.121 6.14388 225.669 6.13858 226.211 6.12762C226.753 6.11779 227.3 6.10155 227.852 6.08038C228.405 6.05884 228.958 6.02671 229.51 5.98438L229.67 6.14388V27.7964L229.829 27.9559H232.219V29.0716H224.568ZM246.23 29.3902C245.508 29.3902 244.892 29.2307 244.382 28.9121C243.872 28.5935 243.543 28.1154 243.394 27.4778C242.905 28.0303 242.277 28.4869 241.512 28.8486C240.746 29.2099 239.833 29.3902 238.771 29.3902C237.092 29.3902 235.795 28.9756 234.882 28.1475C233.968 27.3183 233.51 26.3299 233.51 25.1821C233.51 24.0138 233.968 23.0198 234.882 22.2016C235.795 21.3833 237.092 20.9743 238.771 20.9743C239.833 20.9743 240.746 21.155 241.512 21.516C242.277 21.8777 242.905 22.3342 243.394 22.8875V19.5079C243.394 18.2115 243.154 17.1971 242.676 16.4639C242.198 15.7303 241.354 15.3633 240.142 15.3633C239.483 15.3633 238.872 15.4324 238.309 15.5711C237.746 15.7091 237.219 15.9589 236.73 16.3195C237.07 16.5111 237.31 16.7451 237.448 17.0213C237.586 17.2972 237.655 17.5954 237.655 17.9141C237.655 18.3816 237.495 18.7637 237.176 19.0619C236.857 19.359 236.487 19.5079 236.061 19.5079C235.615 19.5079 235.237 19.3484 234.928 19.0298C234.621 18.7108 234.467 18.275 234.467 17.7224C234.467 17.1703 234.638 16.6706 234.977 16.2239C235.317 15.7779 235.775 15.3958 236.349 15.0768C236.922 14.7582 237.565 14.5136 238.277 14.3435C238.989 14.1735 239.705 14.0884 240.428 14.0884C241.447 14.0884 242.373 14.2317 243.202 14.5189C244.031 14.8058 244.694 15.3051 245.193 16.0171C245.693 16.7288 245.943 17.7334 245.943 19.0298V26.6172C245.943 26.9146 246.012 27.2117 246.15 27.5091C246.288 27.8074 246.561 27.9559 246.964 27.9559C247.262 27.9559 247.526 27.8493 247.76 27.6373C247.994 27.4241 248.217 27.1803 248.43 26.9037L249.29 27.6373C249.035 27.9978 248.76 28.3115 248.462 28.5772C248.165 28.8429 247.835 29.0455 247.474 29.1831C247.113 29.3211 246.699 29.3902 246.23 29.3902ZM243.394 26.0434V24.3219C242.713 23.5992 242.023 23.0996 241.321 22.8229C240.62 22.5474 239.961 22.4087 239.344 22.4087C238.346 22.4087 237.549 22.6585 236.954 23.1578C236.359 23.6574 236.061 24.3325 236.061 25.1821C236.061 26.0113 236.359 26.6811 236.954 27.1913C237.549 27.7008 238.346 27.9559 239.344 27.9559C239.961 27.9559 240.62 27.8179 241.321 27.5413C242.023 27.2646 242.713 26.7661 243.394 26.0434ZM264.609 27.7964L264.768 27.9559H267.158V29.0716H259.508V27.9559H261.899L262.058 27.7964V18.8703C262.058 17.829 261.877 17.0108 261.516 16.4155C261.155 15.8202 260.485 15.5228 259.508 15.5228C258.615 15.5228 257.76 15.8263 256.942 16.4314C256.124 17.0368 255.279 18.0626 254.408 19.5079V27.7964L254.566 27.9559H256.958V29.0716H249.307V27.9559H251.698L251.857 27.7964V15.6823L251.698 15.5228H249.307V14.407C249.86 14.407 250.396 14.4017 250.917 14.3912C251.437 14.3806 251.959 14.3651 252.479 14.3435C253 14.322 253.537 14.2899 254.089 14.2479L254.249 14.407V17.436H254.408C255.024 16.437 255.8 15.6293 256.735 15.0133C257.669 14.3965 258.828 14.0884 260.21 14.0884C261.314 14.0884 262.186 14.2748 262.824 14.6463C263.461 15.0178 263.917 15.5175 264.193 16.1449C264.469 16.7715 264.609 17.4673 264.609 18.2327V27.7964ZM280.219 24.1303V19.3484C279.625 17.9885 278.923 17.0108 278.115 16.4155C277.308 15.8202 276.468 15.5228 275.597 15.5228C274.385 15.5228 273.393 15.985 272.617 16.9095C271.842 17.8343 271.452 19.3378 271.452 21.4211C271.452 23.5036 271.842 25.1133 272.617 26.2502C273.393 27.3874 274.385 27.9559 275.597 27.9559C276.468 27.9559 277.308 27.6584 278.115 27.0632C278.923 26.4679 279.625 25.4901 280.219 24.1303ZM110.446 41.0648C112.082 41.0648 113.565 41.3037 114.893 41.7818C116.222 42.2599 117.359 42.9455 118.305 43.8382C119.25 44.7309 119.983 45.8142 120.504 47.0901C121.025 48.365 121.285 49.8099 121.285 51.4252C121.285 52.9983 121.014 54.4538 120.473 55.7925C119.931 57.132 119.17 58.2957 118.193 59.2833C117.215 60.2716 116.068 61.0415 114.75 61.5948C113.432 62.1474 111.997 62.424 110.446 62.424H100.562V61.3083H103.114L103.273 61.1481V44.5847H106.142V61.1481L106.302 61.3083H110.446C112.019 61.3083 113.39 60.9145 114.559 60.1284C115.727 59.3422 116.636 58.2314 117.284 56.7971C117.932 55.3628 118.257 53.6778 118.257 51.7446C118.257 49.8949 117.916 48.2478 117.236 46.8029C116.556 45.3576 115.584 44.226 114.319 43.4077C113.055 42.5895 111.552 42.1801 109.809 42.1801C106.727 42.1801 103.645 42.1801 100.562 42.1801V41.0648H110.446ZM131.184 61.4671C132.31 61.4671 133.26 61.2127 134.036 60.7021C134.811 60.1919 135.487 59.6287 136.06 59.0126L136.922 59.7459C136.475 60.2769 135.97 60.7713 135.407 61.2278C134.844 61.6852 134.185 62.0514 133.43 62.328C132.675 62.604 131.767 62.7427 130.704 62.7427C129.407 62.7427 128.202 62.4346 127.087 61.8178C125.971 61.2017 125.073 60.32 124.393 59.1721C123.713 58.0243 123.373 56.6644 123.373 55.0914C123.373 53.5183 123.713 52.1585 124.393 51.0106C125.073 49.8628 125.971 48.981 127.087 48.365C128.202 47.7481 129.407 47.4409 130.704 47.4409C132.022 47.4409 133.154 47.6952 134.101 48.2055C135.046 48.7161 135.778 49.4913 136.299 50.5325C136.82 51.5738 137.081 52.8811 137.081 54.4538H125.923V53.3384H134.02C133.936 51.8081 133.631 50.6281 133.111 49.7993C132.59 48.9712 131.736 48.5566 130.545 48.5566C129.504 48.5566 128.659 48.8325 128.01 49.3847C127.362 49.9372 126.891 50.7079 126.593 51.6962C126.295 52.685 126.146 53.8165 126.146 55.0914C126.146 56.3451 126.381 57.4506 126.848 58.4068C127.315 59.363 127.932 60.1121 128.697 60.6541C129.462 61.1965 130.29 61.4671 131.184 61.4671ZM147.107 47.7591H152.909V48.8752H150.995L146.087 62.424H144.015L138.691 48.8752H136.46V47.7591H143.824V48.8752H141.751L141.592 49.0347L145.609 59.5546H145.768L149.497 49.0347L149.339 48.8752H147.107V47.7591ZM160.734 61.4671C161.86 61.4671 162.813 61.2127 163.589 60.7021C164.364 60.1919 165.039 59.6287 165.613 59.0126L166.474 59.7459C166.027 60.2769 165.521 60.7713 164.958 61.2278C164.395 61.6852 163.736 62.0514 162.982 62.328C162.227 62.604 161.32 62.7427 160.257 62.7427C158.961 62.7427 157.755 62.4346 156.639 61.8178C155.523 61.2017 154.625 60.32 153.945 59.1721C153.266 58.0243 152.924 56.6644 152.924 55.0914C152.924 53.5183 153.266 52.1585 153.945 51.0106C154.625 49.8628 155.523 48.981 156.639 48.365C157.755 47.7481 158.961 47.4409 160.257 47.4409C161.575 47.4409 162.706 47.6952 163.652 48.2055C164.597 48.7161 165.332 49.4913 165.852 50.5325C166.373 51.5738 166.633 52.8811 166.633 54.4538H155.475V53.3384H163.572C163.487 51.8081 163.185 50.6281 162.665 49.7993C162.143 48.9712 161.288 48.5566 160.098 48.5566C159.057 48.5566 158.211 48.8325 157.562 49.3847C156.914 49.9372 156.442 50.7079 156.145 51.6962C155.848 52.685 155.698 53.8165 155.698 55.0914C155.698 56.3451 155.933 57.4506 156.4 58.4068C156.868 59.363 157.484 60.1121 158.249 60.6541C159.014 61.1965 159.841 61.4671 160.734 61.4671ZM167.924 62.424V61.3083H170.314L170.474 61.1481V40.4272L170.314 40.2677H167.924V39.1524C168.476 39.1524 169.024 39.1471 169.566 39.1361C170.108 39.1255 170.654 39.1093 171.206 39.0885C171.759 39.0673 172.313 39.0352 172.865 38.9929L173.025 39.1524V61.1481L173.184 61.3083H175.575V62.424H167.924ZM184.676 47.4409C185.993 47.4409 187.206 47.7481 188.311 48.365C189.416 48.981 190.309 49.8628 190.988 51.0106C191.669 52.1585 192.008 53.5183 192.008 55.0914C192.008 56.6644 191.669 58.0243 190.988 59.1721C190.309 60.32 189.416 61.2017 188.311 61.8178C187.206 62.4346 185.993 62.7427 184.676 62.7427C183.379 62.7427 182.174 62.4346 181.058 61.8178C179.943 61.2017 179.045 60.32 178.365 59.1721C177.685 58.0243 177.344 56.6644 177.344 55.0914C177.344 53.5183 177.685 52.1585 178.365 51.0106C179.045 49.8628 179.943 48.981 181.058 48.365C182.174 47.7481 183.379 47.4409 184.676 47.4409ZM184.836 61.6262C185.898 61.6262 186.743 61.345 187.37 60.7818C187.996 60.2187 188.449 59.448 188.725 58.4703C189.002 57.4933 189.139 56.3662 189.139 55.0914C189.139 53.8381 188.938 52.7163 188.534 51.728C188.131 50.74 187.583 49.9641 186.892 49.4009C186.201 48.8378 185.41 48.5566 184.517 48.5566C183.476 48.5566 182.636 48.8325 181.999 49.3847C181.361 49.9372 180.905 50.7079 180.628 51.6962C180.352 52.685 180.213 53.8165 180.213 55.0914C180.213 56.3451 180.414 57.4664 180.818 58.4552C181.222 59.4435 181.77 60.2187 182.461 60.7818C183.152 61.345 183.943 61.6262 184.836 61.6262ZM203.221 47.4409C204.496 47.4409 205.628 47.7542 206.616 48.3812C207.604 49.0079 208.38 49.8896 208.943 51.0269C209.507 52.1638 209.788 53.4976 209.788 55.0279C209.788 56.5578 209.507 57.9026 208.943 59.0603C208.38 60.2187 207.604 61.122 206.616 61.7702C205.628 62.4184 204.496 62.7427 203.221 62.7427C201.882 62.7427 200.803 62.4445 199.986 61.8499C199.167 61.2547 198.556 60.543 198.152 59.7137V68.774L198.312 68.9335H201.978V70.0492H193.051V68.9335H195.443L195.602 68.774V49.0347L195.443 48.8752H193.051V47.7591C193.603 47.7591 194.14 47.7542 194.661 47.7436C195.181 47.733 195.703 47.7168 196.224 47.6952C196.745 47.6737 197.281 47.6423 197.833 47.6004L197.993 47.7591V50.469H198.152C198.556 49.7248 199.188 49.0347 200.049 48.3971C200.91 47.7591 201.967 47.4409 203.221 47.4409ZM202.775 61.3083C203.986 61.3083 204.98 60.8457 205.755 59.9216C206.531 58.9968 206.919 57.4933 206.919 55.41C206.919 53.3275 206.531 51.7178 205.755 50.5809C204.98 49.4436 203.986 48.8752 202.775 48.8752C201.904 48.8752 201.064 49.1726 200.256 49.7679C199.449 50.3624 198.748 51.3402 198.152 52.7008V57.4827C198.748 58.8426 199.449 59.8203 200.256 60.4149C201.064 61.0101 201.904 61.3083 202.775 61.3083ZM236.581 61.3083H238.973V62.424H231.482V61.3083H233.713L233.872 61.1481V52.2227C233.872 51.1807 233.691 50.3624 233.331 49.7679C232.97 49.1726 232.3 48.8752 231.322 48.8752C230.43 48.8752 229.627 49.1779 228.915 49.7838C228.202 50.3893 227.412 51.4143 226.54 52.8603V61.1481L226.7 61.3083H228.93V62.424H221.599V61.3083H223.831L223.99 61.1481V52.2227C223.99 51.1807 223.81 50.3624 223.448 49.7679C223.087 49.1726 222.417 48.8752 221.439 48.8752C220.546 48.8752 219.745 49.1779 219.033 49.7838C218.321 50.3893 217.529 51.4143 216.658 52.8603V61.1481L216.818 61.3083H219.049V62.424H211.558V61.3083H213.948L214.107 61.1481V49.0347L213.948 48.8752H211.558V47.7591C212.11 47.7591 212.647 47.7542 213.167 47.7436C213.688 47.733 214.209 47.7168 214.729 47.6952C215.25 47.6737 215.787 47.6423 216.34 47.6004L216.499 47.7591V50.7876H216.658C217.274 49.7887 217.997 48.981 218.826 48.365C219.655 47.7481 220.76 47.4409 222.141 47.4409C223.586 47.4409 224.642 47.7591 225.312 48.3971C225.983 49.0347 226.381 49.8424 226.508 50.8198C227.125 49.7573 227.858 48.9281 228.708 48.3328C229.559 47.7383 230.664 47.4409 232.023 47.4409C233.128 47.4409 233.999 47.6264 234.637 47.998C235.274 48.3703 235.731 48.8699 236.008 49.4966C236.284 50.1236 236.423 50.8198 236.423 51.5844V61.1481L236.581 61.3083ZM248.553 61.4671C249.679 61.4671 250.63 61.2127 251.406 60.7021C252.182 60.1919 252.856 59.6287 253.43 59.0126L254.29 59.7459C253.844 60.2769 253.34 60.7713 252.777 61.2278C252.214 61.6852 251.553 62.0514 250.799 62.328C250.045 62.604 249.137 62.7427 248.075 62.7427C246.778 62.7427 245.571 62.4346 244.456 61.8178C243.34 61.2017 242.443 60.32 241.762 59.1721C241.083 58.0243 240.743 56.6644 240.743 55.0914C240.743 53.5183 241.083 52.1585 241.762 51.0106C242.443 49.8628 243.34 48.981 244.456 48.365C245.571 47.7481 246.778 47.4409 248.075 47.4409C249.392 47.4409 250.523 47.6952 251.469 48.2055C252.415 48.7161 253.149 49.4913 253.669 50.5325C254.19 51.5738 254.451 52.8811 254.451 54.4538H243.293V53.3384H251.39C251.305 51.8081 251.002 50.6281 250.482 49.7993C249.961 48.9712 249.106 48.5566 247.915 48.5566C246.874 48.5566 246.03 48.8325 245.381 49.3847C244.732 49.9372 244.26 50.7079 243.962 51.6962C243.665 52.685 243.516 53.8165 243.516 55.0914C243.516 56.3451 243.749 57.4506 244.217 58.4068C244.684 59.363 245.302 60.1121 246.066 60.6541C246.832 61.1965 247.659 61.4671 248.553 61.4671ZM271.202 61.1481L271.361 61.3083H273.753V62.424H266.102V61.3083H268.494L268.652 61.1481V52.2227C268.652 51.1807 268.472 50.3624 268.11 49.7679C267.75 49.1726 267.08 48.8752 266.102 48.8752C265.21 48.8752 264.355 49.1779 263.536 49.7838C262.718 50.3893 261.873 51.4143 261.002 52.8603V61.1481L261.161 61.3083H263.553V62.424H255.9V61.3083H258.292L258.451 61.1481V49.0347L258.292 48.8752H255.9V47.7591C256.453 47.7591 256.991 47.7542 257.511 47.7436C258.032 47.733 258.551 47.7168 259.072 47.6952C259.593 47.6737 260.131 47.6423 260.683 47.6004L260.842 47.7591V50.7876H261.002C261.618 49.7887 262.394 48.981 263.329 48.365C264.264 47.7481 265.422 47.4409 266.804 47.4409C267.909 47.4409 268.779 47.6264 269.417 47.998C270.054 48.3703 270.512 48.8699 270.788 49.4966C271.064 50.1236 271.202 50.8198 271.202 51.5844V61.1481Z" fill="white"></path> </g> <defs> <clipPath id="clip0_108_315"> <rect width="286" height="71" fill="white"></rect> </clipPath> </defs> </svg> 