<?xml version="1.0" encoding="UTF-8"?> <svg xmlns="http://www.w3.org/2000/svg" width="100" height="100" viewBox="0 0 100 100" fill="none"> <rect width="100" height="100" rx="20" fill="#008649"></rect> <path d="M50 28C37.8461 28 28 37.8475 28 50C28 62.1525 37.8475 72 50 72C62.1539 72 72 62.1525 72 50C72 37.8475 62.1525 28 50 28ZM60.8055 43.0721L57.1947 60.0874C56.9279 61.2938 56.2097 61.5862 55.2076 61.0185L49.7076 56.9648L47.0548 59.5196C46.7625 59.812 46.5141 60.0604 45.9463 60.0604L46.3366 54.4624L56.529 45.2537C56.9733 44.8634 56.4311 44.6419 55.8449 45.0323L43.2481 52.9622L37.8191 51.2675C36.6396 50.8956 36.6126 50.088 38.0675 49.5203L59.2783 41.3405C60.2634 40.9857 61.1235 41.5804 60.8041 43.0707L60.8055 43.0721Z" fill="white"></path> </svg> 