<?xml version="1.0" encoding="UTF-8"?> <svg xmlns="http://www.w3.org/2000/svg" width="100" height="100" viewBox="0 0 100 100" fill="none"> <rect width="100" height="100" rx="20" fill="#008649"></rect> <mask id="mask0_107_313" style="mask-type:alpha" maskUnits="userSpaceOnUse" x="26" y="26" width="48" height="48"> <rect x="26" y="26" width="48" height="48" fill="#D9D9D9"></rect> </mask> <g mask="url(#mask0_107_313)"> <path d="M35 68C34.175 68 33.4688 67.7063 32.8813 67.1188C32.2937 66.5313 32 65.825 32 65V35C32 34.175 32.2937 33.4688 32.8813 32.8813C33.4688 32.2937 34.175 32 35 32H65C65.825 32 66.5313 32.2937 67.1188 32.8813C67.7063 33.4688 68 34.175 68 35V65C68 65.825 67.7063 66.5313 67.1188 67.1188C66.5313 67.7063 65.825 68 65 68H35ZM46.5 65V51.5H35V65H46.5ZM49.5 65H65V51.5H49.5V65ZM35 48.5H65V35H35V48.5Z" fill="white"></path> </g> </svg> 