<?xml version="1.0" encoding="UTF-8"?> <svg xmlns="http://www.w3.org/2000/svg" width="100" height="100" viewBox="0 0 100 100" fill="none"> <rect width="100" height="100" rx="20" fill="#008649"></rect> <mask id="mask0_107_314" style="mask-type:alpha" maskUnits="userSpaceOnUse" x="26" y="26" width="48" height="48"> <rect x="26" y="26" width="48" height="48" fill="#D9D9D9"></rect> </mask> <g mask="url(#mask0_107_314)"> <path d="M54.85 60.3H64.4V50.6H61.4V57.3H54.85V60.3ZM35.65 49.4H38.65V42.7H45.2V39.7H35.65V49.4ZM33 66C32.2 66 31.5 65.7 30.9 65.1C30.3 64.5 30 63.8 30 63V37C30 36.2 30.3 35.5 30.9 34.9C31.5 34.3 32.2 34 33 34H67C67.8 34 68.5 34.3 69.1 34.9C69.7 35.5 70 36.2 70 37V63C70 63.8 69.7 64.5 69.1 65.1C68.5 65.7 67.8 66 67 66H33ZM33 63H67V37H33V63Z" fill="white"></path> </g> </svg> 